<?xml version="1.0" encoding="utf-8"?>
<!-- Generator: Adobe Illustrator 27.5.0, SVG Export Plug-In . SVG Version: 6.00 Build 0)  -->
<svg version="1.1" xmlns="http://www.w3.org/2000/svg" xmlns:xlink="http://www.w3.org/1999/xlink" x="0px" y="0px"
	 viewBox="0 0 500 500" style="enable-background:new 0 0 500 500;" xml:space="preserve">
<g id="BACKGROUND">
	<rect id="XMLID_1_" style="fill:#FFFFFF;" width="500" height="500"/>
</g>
<g id="OBJECTS">
	<g>
		<g>
			<path style="fill:#B5E84F;" d="M405.387,220.291c-4.748-5.62-6.206-13.834-3.683-20.746c0.583-1.596,1.374-3.207,1.224-4.9
				c-0.096-1.089-0.579-2.104-1.118-3.055c-2.106-3.716-5.184-6.873-6.84-10.81c-1.534-3.648-1.725-7.844-0.528-11.617
				c0.831-2.62,2.326-5.242,1.788-7.938c-0.557-2.79-3.11-4.692-4.465-7.193c-1.788-3.303-1.211-7.71,1.328-10.478
				c2.539-2.768,6.84-3.729,10.336-2.355c3.496,1.373,5.984,4.966,6.096,8.72c0.08,2.693-0.941,5.279-1.478,7.919
				c-0.46,2.262-0.566,4.595-0.313,6.889c0.122,1.108,0.342,2.241,0.956,3.172c1.169,1.769,3.492,2.398,5.613,2.384
				c2.12-0.014,4.223-0.527,6.341-0.432c4.526,0.202,8.505,3.152,11.427,6.613c2.618,3.101,4.708,7.019,4.232,11.05
				c-0.263,2.233-1.293,4.303-2.484,6.211c-3.586,5.748-8.84,10.652-10.658,17.178c-0.655,2.35-0.844,4.864-1.981,7.022
				c-1.714,3.251-5.631,5.182-9.254,4.562"/>
			<path style="fill:#FFFFFF;" d="M408.012,212.295c-0.238,0-0.449-0.17-0.492-0.413c-0.913-5.144-1.098-9.047-0.603-12.656
				c0.296-2.163,0.864-4.294,1.413-6.355c0.34-1.279,0.692-2.602,0.974-3.91c0.881-4.106,0.807-7.399-0.228-10.068
				c-0.84-2.167-2.294-3.961-3.833-5.86c-1.189-1.466-2.417-2.981-3.328-4.679c-2.097-3.906-2.368-8.453-2.355-12.387
				c0.008-2.727,0.237-5.544,1.841-7.675c0.166-0.22,0.479-0.266,0.7-0.099c0.221,0.166,0.265,0.479,0.099,0.7
				c-1.499,1.993-1.632,4.698-1.64,7.077c-0.012,3.808,0.245,8.202,2.236,11.911c0.867,1.614,2.065,3.092,3.224,4.522
				c1.521,1.876,3.093,3.815,3.989,6.128c1.107,2.856,1.196,6.336,0.273,10.639c-0.286,1.332-0.642,2.666-0.985,3.957
				c-0.541,2.032-1.101,4.132-1.389,6.233c-0.48,3.501-0.296,7.308,0.597,12.345c0.048,0.272-0.133,0.532-0.405,0.58
				C408.07,212.292,408.041,212.295,408.012,212.295z"/>
			<path style="fill:#9FCD4D;" d="M411.99,199.401c-1.664-2.423-3.493-4.826-4.28-7.659c-0.787-2.832-0.254-6.273,2.114-8.013
				c1.398-1.027,3.265-1.359,4.484-2.594c1.195-1.211,1.508-3.066,1.305-4.755c-0.203-1.689-0.85-3.286-1.334-4.916
				c-1.361-4.583-1.378-9.745,0.909-13.943c1.719-3.154,5.485-5.734,8.806-4.365c2.547,1.05,3.798,4.054,3.76,6.808
				c-0.038,2.754-1.076,5.379-1.86,8.02c-0.784,2.641-1.314,5.526-0.356,8.109c0.609,1.642,1.77,3.018,2.542,4.59
				c1.587,3.231,1.416,7.082,0.447,10.548c-0.969,3.466-2.673,6.673-4.112,9.972c-1.074,2.464-4.322,14.863-7.881,12.742
				c-2.453-1.462-1.022-4.351-1.139-6.524C415.233,204.446,413.632,201.794,411.99,199.401z"/>
			<path style="fill:#FFFFFF;" d="M417.488,209.977c-0.081,0-0.163-0.02-0.238-0.06c-0.243-0.132-0.332-0.436-0.201-0.678
				c1.123-2.066,2.174-4.103,2.708-6.316c0.582-2.414,0.403-4.727-0.502-6.513c-0.255-0.503-0.57-0.979-0.903-1.482
				c-0.619-0.936-1.26-1.904-1.485-3.064c-0.414-2.126,0.655-4.05,1.688-5.91c0.163-0.294,0.326-0.586,0.48-0.876
				c1.284-2.415,1.826-4.665,1.61-6.688c-0.115-1.073-0.436-2.098-0.777-3.183c-0.209-0.666-0.426-1.355-0.588-2.053
				c-0.829-3.559-0.234-7.403,1.63-10.546c0.142-0.238,0.448-0.315,0.686-0.175c0.237,0.141,0.315,0.448,0.175,0.686
				c-1.734,2.922-2.287,6.497-1.517,9.809c0.154,0.662,0.365,1.331,0.568,1.98c0.341,1.084,0.693,2.205,0.818,3.376
				c0.238,2.226-0.341,4.67-1.721,7.264c-0.157,0.295-0.322,0.593-0.489,0.893c-0.946,1.703-1.924,3.464-1.581,5.233
				c0.188,0.964,0.746,1.809,1.338,2.703c0.333,0.505,0.679,1.026,0.96,1.581c1.013,1.998,1.22,4.555,0.582,7.199
				c-0.563,2.332-1.646,4.433-2.801,6.56C417.837,209.883,417.665,209.977,417.488,209.977z"/>
			<g>
				<defs>
					<polygon id="XMLID_70_" points="396.719,207.69 402.46,237.314 422.656,237.314 428.126,208.081 					"/>
				</defs>
				<use xlink:href="#XMLID_70_"  style="overflow:visible;fill:#4C2357;"/>
				<clipPath id="XMLID_00000174585778556466970440000003527305266483482510_">
					<use xlink:href="#XMLID_70_"  style="overflow:visible;"/>
				</clipPath>
				
					<rect x="390.728" y="199.717" style="opacity:0.2;clip-path:url(#XMLID_00000174585778556466970440000003527305266483482510_);fill:#3D3D91;" width="44.643" height="15.599"/>
			</g>
			<rect x="394.406" y="205.83" style="fill:#4C2357;" width="35.891" height="5.251"/>
		</g>
		<ellipse style="opacity:0.1;fill:#6031A2;" cx="250" cy="398.68" rx="225.661" ry="32.924"/>
		<rect x="195.475" y="215.572" style="fill:#3D2558;" width="109.051" height="14.428"/>
		<g>
			<defs>
				<rect id="XMLID_69_" x="230.712" y="181.469" width="38.576" height="29.228"/>
			</defs>
			<use xlink:href="#XMLID_69_"  style="overflow:visible;fill:#CCCCF2;"/>
			<clipPath id="XMLID_00000090271060113859400850000004250203303224599998_">
				<use xlink:href="#XMLID_69_"  style="overflow:visible;"/>
			</clipPath>
			
				<rect x="216.736" y="160.225" style="opacity:0.2;clip-path:url(#XMLID_00000090271060113859400850000004250203303224599998_);fill:#3D3D91;" width="72.686" height="35.859"/>
		</g>
		<g>
			<defs>
				<path id="XMLID_68_" d="M338.435,188.178h-176.87c-2.604,0-4.715-2.111-4.715-4.715V71.017c0-2.604,2.111-4.715,4.715-4.715
					h176.87c2.604,0,4.716,2.111,4.716,4.715v112.445C343.151,186.067,341.039,188.178,338.435,188.178z"/>
			</defs>
			<use xlink:href="#XMLID_68_"  style="overflow:visible;fill:#3D2558;"/>
			<clipPath id="XMLID_00000068638626500266479440000008308369869495294889_">
				<use xlink:href="#XMLID_68_"  style="overflow:visible;"/>
			</clipPath>
			
				<rect x="147.715" y="169.83" style="clip-path:url(#XMLID_00000068638626500266479440000008308369869495294889_);fill:#CCCCF2;" width="202.512" height="36.697"/>
			<linearGradient id="SVGID_1_" gradientUnits="userSpaceOnUse" x1="249.9398" y1="156.3114" x2="249.9398" y2="55.3001">
				<stop  offset="0" style="stop-color:#BFFFF3"/>
				<stop  offset="1" style="stop-color:#61D2DF"/>
			</linearGradient>
			
				<rect x="164.778" y="73.011" style="clip-path:url(#XMLID_00000068638626500266479440000008308369869495294889_);fill:url(#SVGID_1_);" width="170.323" height="87.214"/>
			<path style="clip-path:url(#XMLID_00000068638626500266479440000008308369869495294889_);fill:#3D2558;" d="M254.071,178.965
				c0,2.322-1.882,4.204-4.204,4.204s-4.204-1.882-4.204-4.204s1.882-4.204,4.204-4.204S254.071,176.643,254.071,178.965z"/>
			
				<rect x="175.911" y="78.89" style="opacity:0.7;clip-path:url(#XMLID_00000068638626500266479440000008308369869495294889_);fill:#FFFFFF;" width="52.547" height="75.658"/>
			
				<rect x="246.542" y="83.753" style="clip-path:url(#XMLID_00000068638626500266479440000008308369869495294889_);fill:#FFFFFF;" width="74.441" height="9.087"/>
			
				<rect x="304.09" y="129.707" style="clip-path:url(#XMLID_00000068638626500266479440000008308369869495294889_);fill:#FFFFFF;" width="16.893" height="24.346"/>
			
				<rect x="246.542" y="97.227" style="clip-path:url(#XMLID_00000068638626500266479440000008308369869495294889_);fill:#FFFFFF;" width="74.441" height="3.428"/>
			
				<rect x="286.559" y="105.746" style="clip-path:url(#XMLID_00000068638626500266479440000008308369869495294889_);fill:#FFFFFF;" width="34.424" height="3.428"/>
			
				<rect x="264.95" y="114.265" style="clip-path:url(#XMLID_00000068638626500266479440000008308369869495294889_);fill:#FFFFFF;" width="56.032" height="3.428"/>
			
				<rect x="252.878" y="122.784" style="clip-path:url(#XMLID_00000068638626500266479440000008308369869495294889_);fill:#FFFFFF;" width="68.104" height="3.428"/>
			
				<ellipse transform="matrix(0.7071 -0.7071 0.7071 0.7071 -32.7289 185.1036)" style="clip-path:url(#XMLID_00000068638626500266479440000008308369869495294889_);fill:#FFFFFF;" cx="207.075" cy="132.059" rx="14.941" ry="14.941"/>
			
				<ellipse transform="matrix(0.7071 -0.7071 0.7071 0.7071 -32.7289 185.1036)" style="clip-path:url(#XMLID_00000068638626500266479440000008308369869495294889_);fill:#FFD83F;" cx="207.075" cy="132.059" rx="12.254" ry="12.254"/>
		</g>
		<g>
			<path style="fill:#682363;" d="M77.344,410.012L77.344,410.012c-3.659,0-6.626-2.966-6.626-6.626V243.939
				c0-3.659,2.966-6.626,6.626-6.626l0,0c3.659,0,6.626,2.966,6.626,6.626v159.447C83.97,407.045,81.004,410.012,77.344,410.012z"/>
			<path style="fill:#682363;" d="M422.656,410.012L422.656,410.012c-3.659,0-6.626-2.966-6.626-6.626V243.939
				c0-3.659,2.966-6.626,6.626-6.626l0,0c3.659,0,6.626,2.966,6.626,6.626v159.447C429.281,407.045,426.315,410.012,422.656,410.012
				z"/>
		</g>
		<g>
			<path style="fill:#4C2357;" d="M107.344,390.012L107.344,390.012c-3.659,0-6.626-2.966-6.626-6.626V243.939
				c0-3.659,2.966-6.626,6.626-6.626l0,0c3.659,0,6.626,2.966,6.626,6.626v139.447C113.97,387.045,111.004,390.012,107.344,390.012z
				"/>
			<path style="fill:#4C2357;" d="M392.656,390.012L392.656,390.012c-3.659,0-6.626-2.966-6.626-6.626V243.939
				c0-3.659,2.966-6.626,6.626-6.626l0,0c3.659,0,6.626,2.966,6.626,6.626v139.447C399.281,387.045,396.315,390.012,392.656,390.012
				z"/>
		</g>
		<g>
			<path style="fill:#3D2558;" d="M364.195,244.065c-5.064,0-10.103-1.079-14.73-3.171l0.824-1.822
				c5.232,2.365,11.022,3.36,16.742,2.873c4.601-0.39,8.374-1.701,11.214-3.896c3.311-2.559,5.186-6.395,4.894-10.012
				c-0.272-3.361-2.233-6.265-4.308-9.339c-2.179-3.228-4.432-6.566-4.643-10.561c-0.174-3.285,1.096-6.364,2.361-8.942
				c1.216-2.476,2.617-4.887,3.972-7.218l0.791-1.363c1.309-2.265,2.546-4.492,3.294-6.839c1.154-3.618,1.144-7.6-0.027-11.212
				c-1.578-4.869-5.384-8.71-9.695-9.786c-2.037-0.507-4.332-0.502-7.017,0.016c-4.915,0.948-9.354,3.304-12.498,6.634
				c-3.386,3.586-5.25,8.279-5.112,12.876l-1.999,0.06c-0.153-5.124,1.909-10.34,5.657-14.309c3.43-3.632,8.25-6.198,13.573-7.225
				c2.977-0.575,5.554-0.572,7.879,0.008c5.042,1.258,9.3,5.515,11.113,11.109c1.299,4.007,1.31,8.424,0.03,12.437
				c-0.809,2.538-2.102,4.87-3.468,7.233l-0.793,1.367c-1.338,2.301-2.721,4.681-3.906,7.094c-1.152,2.347-2.309,5.128-2.16,7.955
				c0.182,3.441,2.184,6.407,4.304,9.547c2.128,3.153,4.329,6.413,4.643,10.297c0.347,4.283-1.824,8.787-5.664,11.755
				c-3.149,2.434-7.276,3.883-12.268,4.307C366.2,244.023,365.197,244.065,364.195,244.065z"/>
			<g>
				<path style="fill:#594470;" d="M366.046,233.717h-89.72c-1.823,0-3.301-1.478-3.301-3.301v-45.865
					c0-1.823,1.478-3.301,3.301-3.301h89.72c1.823,0,3.301,1.478,3.301,3.301v45.865
					C369.347,232.239,367.869,233.717,366.046,233.717z"/>
				<rect x="284.413" y="185.469" style="opacity:0.7;fill:#DFE9FF;" width="73.546" height="36.103"/>
				<rect x="275.496" y="189.887" style="fill:#3D2558;" width="1.914" height="13.634"/>
				<rect x="361.933" y="189.887" style="fill:#3D2558;" width="5.22" height="13.634"/>
				<rect x="279.323" y="189.887" style="fill:#3D2558;" width="1.914" height="20.185"/>
				<rect x="275.496" y="183.054" style="fill:#3DC7FF;" width="5.742" height="0.71"/>
			</g>
			<rect x="342.855" y="189.146" style="fill:#FFFFFF;" width="10.095" height="28.255"/>
			<path style="fill:#FFFFFF;" d="M340.761,217.901h-25.129v-29.255h25.129V217.901z M316.632,216.901h23.129v-27.255h-23.129
				V216.901z"/>
			<circle style="fill:#FFFFFF;" cx="324.927" cy="198.763" r="5.511"/>
			<circle style="fill:#FFD83F;" cx="324.927" cy="198.763" r="3.396"/>
		</g>
		<rect x="60.232" y="230" style="fill:#CA4C72;" width="379.536" height="14.628"/>
		<rect x="306.187" y="131.518" style="fill:#FFD83F;" width="5.464" height="5.464"/>
		<rect x="313.4" y="131.518" style="fill:#CA4C72;" width="5.464" height="5.464"/>
		<rect x="306.187" y="138.849" style="fill:#FF4889;" width="5.464" height="5.464"/>
		<rect x="313.4" y="138.849" style="fill:#594470;" width="5.464" height="5.464"/>
		<rect x="306.187" y="146.179" style="fill:#3D2558;" width="5.464" height="5.464"/>
		<rect x="313.4" y="146.179" style="fill:#FF9043;" width="5.464" height="5.464"/>
		<g>
			<g>
				<defs>
					<path id="XMLID_71_" d="M170.755,371.218l-7.15,16.272l44.023,25.732c0,0,8.13-22.851-19.707-32.924"/>
				</defs>
				<use xlink:href="#XMLID_71_"  style="overflow:visible;fill:#FFD83F;"/>
				<clipPath id="XMLID_00000134928879351949678210000013278949148435099814_">
					<use xlink:href="#XMLID_71_"  style="overflow:visible;"/>
				</clipPath>
				<polygon style="clip-path:url(#XMLID_00000134928879351949678210000013278949148435099814_);fill:#FFFFFF;" points="
					160.934,381.629 219.921,416.212 216.48,421.883 163.606,395.339 				"/>
			</g>
			<path style="fill:#331E46;" d="M150.258,307l37.831,13.365l-20.308,50.522c0,0,14.671,13.112,26.704,10.362
				c9.698-15.242,36.227-71.497,36.227-71.497L150.258,307z"/>
			<path style="fill:#D6D6F5;" d="M282.784,210.698h-65.567c-1.346,0-2.437,1.091-2.437,2.437l0,0c0,1.346,1.091,2.437,2.437,2.437
				h65.567c1.346,0,2.437-1.091,2.437-2.437l0,0C285.221,211.789,284.13,210.698,282.784,210.698z"/>
			<path style="fill:#FFFFFF;" d="M288.976,218.764c0,0,8.825-28.091,9.517-29.434c2.97-0.693,3.16,0.799,3.16,0.799l-10.012,29.692
				L288.976,218.764z"/>
			<path style="fill:#FFD0C4;" d="M252.91,210.215c0.175-0.058,15.136,0.608,16,0.608c5.835-3.747,12.251-6.729,14.324-6.729
				c2.342,0,14.607,3.553,18.272,7.779c3.823,4.409-1.317,6.811-0.668,10.484c0.94,5.326-5.913,8.351-5.913,8.351l-17.664-0.075
				l-8.155-4.738l-15.082,2.461L252.91,210.215z"/>
			<g>
				<defs>
					<path id="XMLID_72_" d="M276.453,398.194l1.47,11.818l53.334-0.467c0,0-5.998-22.045-38.498-20.045"/>
				</defs>
				<use xlink:href="#XMLID_72_"  style="overflow:visible;fill:#FFD83F;"/>
				<clipPath id="XMLID_00000148660582941405820080000006965040189319657149_">
					<use xlink:href="#XMLID_72_"  style="overflow:visible;"/>
				</clipPath>
				
					<rect x="273.501" y="406.153" style="clip-path:url(#XMLID_00000148660582941405820080000006965040189319657149_);fill:#FFFFFF;" width="63.411" height="13.119"/>
			</g>
			<g>
				<path style="fill:#FF4889;" d="M171.432,135.62c13.202-3.469,41.66,64.901,41.66,64.901l47.819,8.682
					c0,0,6.848,13.584-3.152,21.514C228.871,234.86,195.475,230,195.475,230l-26.123-43.479
					C169.351,186.521,158.23,139.09,171.432,135.62z"/>
				<g>
					<path style="fill:#FFD0C4;" d="M127.883,107.46L120.918,128c0,0,17.967,5.023,33.428,4.018
						c4.837-7.702,3.741-20.426,3.741-20.426"/>
					<path style="fill:#FFD83F;" d="M184.395,64.204c-3.841,0-6.954,3.869-6.954,8.643c0,4.773,3.113,8.643,6.954,8.643
						c3.84,0,6.954-3.869,6.954-8.643C191.349,68.074,188.236,64.204,184.395,64.204z M184.395,78.89
						c-2.743,0-4.967-2.705-4.967-6.043c0-3.338,2.224-6.043,4.967-6.043c2.743,0,4.967,2.705,4.967,6.043
						C189.362,76.185,187.139,78.89,184.395,78.89z"/>
					<path style="fill:#FFD0C4;" d="M121.863,59.187c-4.661,7.137-9.07,40.854,7.092,49.224
						c28.128,14.566,51.902,6.105,51.902,6.105c5.901-17.323,3.851-55.727,0.837-66.578
						C178.681,37.087,137.936,34.575,121.863,59.187z"/>
					<path style="fill:#883657;" d="M178.932,63.695c0.086,0.638,0.462,1.267,1.167,1.571c0.391,0.168,0.852,0.226,1.309,0.256
						c1.054,0.068,2.208-0.023,3.097-0.538c1.163-0.675,1.562-1.914,1.389-2.977c-0.054-0.334-0.16-0.668-0.408-0.933
						c-0.336-0.358-0.905-0.549-1.489-0.596c-0.584-0.046-1.186,0.039-1.772,0.155c-0.81,0.16-2.317,0.386-2.889,0.939
						C178.828,62.064,178.859,63.152,178.932,63.695z"/>
					<path style="fill:#883657;" d="M158.087,68.228c0,0,3.014,26.119,6.53,28.63c3.516,2.511,19.502,0,19.502,0
						s5.94,10.044,0,16.324c-5.94,6.279-25.925,3.778-25.925,3.778l-6.25-48.731H158.087z"/>
					<path style="fill:#883657;" d="M158.087,68.228l4.065-12.088c0,0-12.457-4.806-9.299-9.112s23.812-1.783,31.781-0.696
						c-2.729-10.006-22.255-16.799-43.404-11.569c-21.149,5.23-28.654,21.149-29.109,34.339
						c-0.455,13.19,3.324,31.687,15.761,38.357c17.019,0,17.441-22.894,17.441-22.894l1.915-14.427L158.087,68.228z"/>
					<polygon style="fill:#FFD83F;" points="147.239,67.184 189.363,69.171 189.363,71.555 149.824,69.954 					"/>
					<path style="fill:#FFD0C4;" d="M151.982,69.474c0,0-4.157-5.375-9.842-2.418c-5.685,2.956-5.025,15.02-2.204,18.405
						c4.163,4.996,9.492,2.054,9.492,2.054"/>
				</g>
				<path style="fill:#FF4889;" d="M133.905,119.805c0,0-31.147,0-43.268,23.262c-9.94,19.075,0,126.942,0,126.942
					s56.788,12.36,83.455,1.342c3.333-21.019,12-110.888,6.667-124.953C175.425,132.333,162.758,124,133.905,119.805z"/>
			</g>
			<path style="fill:#3D2558;" d="M90.637,270.01c0,0-9.135,37.158,21.392,44.275s106.483-0.523,106.483-0.523l55.461,84.919
				c0,0,19.882,1.012,27.646-14.346c-0.22-1.294-49.719-98.504-56.189-104.333s-71.337-8.648-71.337-8.648
				S110.554,263.908,90.637,270.01z"/>
			<path style="fill:#FFB3A3;" d="M143.039,71.428c-0.411,0.612-0.511,1.477-0.08,2.075c0.39,0.541,1.087,0.737,1.697,1.006
				c0.61,0.269,1.245,0.766,1.215,1.432c-0.025,0.575-0.53,0.991-0.954,1.38c-0.985,0.904-1.763,2.131-1.787,3.468
				c-0.024,1.337,0.89,2.73,2.211,2.936c1.046,0.163,2.079-0.415,2.832-1.159c2.537-2.506,2.572-6.514,1.92-9.798
				C149.447,69.512,144.958,68.57,143.039,71.428z"/>
			<g>
				<g>
					<defs>
						<path id="XMLID_73_" d="M74.398,164.929c-1.87,1.51,4.423,130.667,6.545,134.667c2.122,4,73.216,5.333,78.335,2.667
							c5.12-2.667,10.469-130.775,7.786-137.333C164.381,158.371,91.731,150.929,74.398,164.929z"/>
					</defs>
					<use xlink:href="#XMLID_73_"  style="overflow:visible;fill:#FF9043;"/>
					<clipPath id="XMLID_00000106130648954778041100000014345307466061485989_">
						<use xlink:href="#XMLID_73_"  style="overflow:visible;"/>
					</clipPath>
					<path style="clip-path:url(#XMLID_00000106130648954778041100000014345307466061485989_);fill:#FFD83F;" d="M82.74,237.346
						c0.454,9.165,0.909,18.337,1.939,27.456c0.759,6.719,1.974,13.743,6.199,19.023c4,4.999,10.146,7.729,16.176,9.884
						c9.354,3.343,20.552,5.505,28.6-0.318c4.286-3.101,6.897-7.994,8.866-12.904c5.385-13.435,6.994-28.061,7.854-42.509
						c0.865-14.542,1.022-29.169-0.617-43.644c-0.562-4.963-1.393-10.065-4.066-14.284c-4.185-6.605-12.061-9.821-19.642-11.736
						c-8.5-2.147-17.585-3.045-26.252-1.375c-5.694,1.097-14.971,3.681-17.644,9.457c-3.613,7.809-2.331,20.641-2.39,29.078
						C81.687,216.105,82.214,226.73,82.74,237.346z"/>
				</g>
				<rect x="125.758" y="323.663" style="fill:#48243A;" width="11" height="88.187"/>
				<path style="fill:#FF9043;" d="M86.219,315c0,0-1.969,10.108,1.349,12.134c3.318,2.026,98.523,2.768,103.96-2.523
					c5.437-5.291,1.392-12.853-4.543-12.528S90.916,311.036,86.219,315z"/>
				<path style="fill:#48243A;" d="M95.961,276.658c0,0-9.195,47.026,6.835,53.685c16.029,6.659,31.54-1.686,31.54-1.686
					l-21.044-5.44c0,0-5.573-17.719-1.039-45.417C104.12,268.972,95.961,276.658,95.961,276.658z"/>
				<path style="fill:#48243A;" d="M91.728,279.624c1.237,1.79,3.082,3.07,4.999,4.1c3.914,2.102,8.455,3.322,12.83,2.545
					c4.374-0.777,8.484-3.827,9.721-8.094c1.387-4.782-1.119-10.103-5.124-13.061c-4.166-3.077-12.457-5.646-17.415-2.944
					C91.159,265.21,88.003,274.235,91.728,279.624z"/>
				
					<ellipse transform="matrix(0.2298 -0.9732 0.9732 0.2298 -299.7713 467.6991)" style="fill:#371F2A;" cx="145.596" cy="423.238" rx="11.261" ry="11.261"/>
				<path style="fill:#48243A;" d="M174.927,422.923h-70.129c-3.707,0-6.712-3.005-6.712-6.712l0,0c0-3.707,3.005-6.712,6.712-6.712
					h70.129c3.707,0,6.712,3.005,6.712,6.712l0,0C181.638,419.918,178.633,422.923,174.927,422.923z"/>
				
					<ellipse transform="matrix(0.2298 -0.9732 0.9732 0.2298 -341.0443 427.5484)" style="fill:#371F2A;" cx="99.593" cy="429.238" rx="11.261" ry="11.261"/>
				
					<ellipse transform="matrix(0.1602 -0.9871 0.9871 0.1602 -271.7933 539.0219)" style="fill:#371F2A;" cx="180.876" cy="429.238" rx="11.261" ry="11.261"/>
			</g>
			<path style="fill:#331E46;" d="M172.258,374.054"/>
		</g>
		<path style="fill:#FFFFFF;" d="M192.928,385.59c-0.498,0.53-0.944,1.248-0.743,1.947c0.102,0.355,0.36,0.645,0.643,0.882
			c1.633,1.367,4.185,1.172,5.954-0.012c0.98-0.656,1.821-1.683,1.833-2.862C200.661,381.059,194.335,384.093,192.928,385.59z"/>
		<path style="fill:#FFFFFF;" d="M303.873,394.54c0.078,0.724,0.332,1.529,0.993,1.832c0.336,0.154,0.724,0.147,1.088,0.087
			c2.1-0.348,3.615-2.412,3.869-4.526c0.141-1.171-0.091-2.478-0.978-3.255C305.471,385.722,303.652,392.498,303.873,394.54z"/>
	</g>
</g>
<g id="DESIGNED_BY_FREEPIK">
	<g>
		<g id="XMLID_25_">
			<g id="XMLID_44_">
				<path id="XMLID_52_" style="fill:#1D262D;" d="M260.104,465.465c-0.432,0.443-0.803,0.931-1.109,1.453l-0.465-0.241
					c-0.067-0.298-0.349-0.503-0.659-0.466c-0.331,0.039-0.568,0.339-0.529,0.67c0.039,0.331,0.339,0.568,0.67,0.529
					c0.065-0.008,0.127-0.026,0.183-0.052l0.451,0.234c-0.251,0.554-0.433,1.139-0.539,1.744l0.746,0.132
					c0.23-1.306,0.85-2.507,1.792-3.473L260.104,465.465z"/>
				<path id="XMLID_51_" style="fill:#1D262D;" d="M265.592,463.163c-0.171,0-0.341,0.006-0.51,0.017l-0.074-0.626
					c0.188-0.149,0.296-0.389,0.266-0.645c-0.046-0.393-0.402-0.674-0.795-0.628c-0.393,0.046-0.674,0.402-0.628,0.795
					c0.03,0.254,0.19,0.461,0.405,0.564l0.074,0.624c-0.714,0.116-1.403,0.332-2.06,0.646l0.327,0.684
					c0.934-0.447,1.942-0.673,2.995-0.673c0.496,0,0.993,0.053,1.475,0.158l0.16-0.741
					C266.692,463.222,266.142,463.163,265.592,463.163z"/>
				<path id="XMLID_50_" style="fill:#1D262D;" d="M272.194,465.711c0.331-0.04,0.566-0.341,0.525-0.672
					c-0.04-0.331-0.341-0.566-0.672-0.526c-0.309,0.038-0.535,0.304-0.53,0.609l-0.416,0.363c-0.418-0.43-0.89-0.813-1.408-1.139
					l-0.404,0.641c1.134,0.715,2.02,1.726,2.563,2.925l0.69-0.313c-0.251-0.554-0.568-1.072-0.942-1.545l0.402-0.351
					C272.065,465.716,272.129,465.719,272.194,465.711z"/>
				<path id="XMLID_49_" style="fill:#1D262D;" d="M265.044,473.372c-0.386,0.023-0.775,0.035-1.157,0.035
					c-0.88,0-1.733-0.061-2.478-0.179c-0.39-0.062-0.846-0.155-1.27-0.292c1.046,1.861,3.069,3.125,5.388,3.125
					c2.855,0,5.262-1.916,5.95-4.504c-0.682,0.449-1.505,0.825-2.459,1.123C267.839,473.047,266.464,473.286,265.044,473.372z"/>
				<path id="XMLID_45_" style="fill:#1D262D;" d="M265.592,464.68c-3.352,0-6.08,2.666-6.08,5.943c0,0.426,0.046,0.849,0.137,1.261
					c0.674,0.483,2.706,0.89,5.348,0.731c2.88-0.173,5.297-0.957,6.672-2.159c-0.005-0.195-0.021-0.39-0.045-0.582
					C271.244,466.913,268.651,464.68,265.592,464.68z M263.432,471.194c-1.02,0-1.85-0.83-1.85-1.85c0-1.02,0.83-1.85,1.85-1.85
					s1.85,0.83,1.85,1.85C265.282,470.365,264.452,471.194,263.432,471.194z M268.17,470.286c-0.75,0-1.36-0.61-1.36-1.36
					s0.61-1.361,1.36-1.361c0.75,0,1.361,0.61,1.361,1.361S268.92,470.286,268.17,470.286z"/>
			</g>
			<path id="XMLID_42_" style="fill:#1D262D;" d="M281.595,466.547c-0.295-0.116-0.805-0.309-1.382-0.237
				c-0.551,0.069-0.844,0.341-0.844,1.007v0.866h2.228v1.717h-2.228v5.455h-1.932v-5.455h-1.339v-1.717h1.339v-0.888
				c0-1.68,0.896-2.783,2.568-2.783c0.642,0,1.157,0.122,1.59,0.308L281.595,466.547z"/>
			<path id="XMLID_40_" style="fill:#1D262D;" d="M286.298,469.879c-0.177-0.03-0.358-0.046-0.526-0.046
				c-0.896,0-1.51,0.548-1.51,1.614v3.908h-1.932v-7.172h1.873v0.785c0.451-0.673,1.14-0.977,2.021-0.977
				c0.414,0,0.848,0.128,1.094,0.337L286.298,469.879z"/>
			<path id="XMLID_37_" style="fill:#1D262D;" d="M293.965,471.757c0,0.222-0.015,0.489-0.037,0.651h-5.085
				c0.207,1.036,0.933,1.488,1.843,1.488c0.622,0,1.295-0.252,1.813-0.688l1.132,1.243c-0.814,0.748-1.85,1.088-3.057,1.088
				c-2.198,0-3.723-1.495-3.723-3.753c0-2.258,1.48-3.797,3.627-3.797C292.544,467.99,293.958,469.522,293.965,471.757z
				 M288.851,471.091h3.175c-0.177-0.918-0.733-1.436-1.561-1.436C289.554,469.655,289.021,470.203,288.851,471.091z"/>
			<path id="XMLID_34_" style="fill:#1D262D;" d="M301.618,471.757c0,0.222-0.015,0.489-0.037,0.651h-5.085
				c0.207,1.036,0.933,1.488,1.843,1.488c0.622,0,1.295-0.252,1.813-0.688l1.132,1.243c-0.814,0.748-1.85,1.088-3.057,1.088
				c-2.198,0-3.723-1.495-3.723-3.753c0-2.258,1.48-3.797,3.626-3.797C300.197,467.99,301.611,469.522,301.618,471.757z
				 M296.504,471.091h3.175c-0.178-0.918-0.733-1.436-1.562-1.436C297.207,469.655,296.674,470.203,296.504,471.091z"/>
			<path id="XMLID_31_" style="fill:#1D262D;" d="M309.964,471.764c0,2.154-1.495,3.775-3.471,3.775
				c-0.962,0-1.643-0.378-2.109-0.933v3.708h-1.924v-10.133h1.887v0.792c0.466-0.585,1.155-0.984,2.139-0.984
				C308.469,467.99,309.964,469.61,309.964,471.764z M304.287,471.764c0,1.132,0.747,1.976,1.843,1.976
				c1.14,0,1.85-0.881,1.85-1.976c0-1.095-0.71-1.976-1.85-1.976C305.035,469.788,304.287,470.632,304.287,471.764z"/>
			<path id="XMLID_28_" style="fill:#1D262D;" d="M313.068,465.836c0,0.696-0.54,1.229-1.236,1.229
				c-0.696,0-1.229-0.533-1.229-1.229c0-0.696,0.533-1.243,1.229-1.243C312.527,464.592,313.068,465.14,313.068,465.836z
				 M312.809,475.354h-1.932v-7.172h1.932V475.354z"/>
			<path id="XMLID_26_" style="fill:#1D262D;" d="M316.032,470.736l2.701-2.554h2.368l-3.479,3.375l3.501,3.797h-2.376l-2.716-2.901
				v2.901h-1.932v-10.658h1.932V470.736z"/>
		</g>
		<g>
			<path style="fill:#1D262D;" d="M184.412,475.289v-1.055c-0.527,0.718-1.391,1.23-2.387,1.23c-1.846,0-3.149-1.406-3.149-3.706
				c0-2.256,1.289-3.721,3.149-3.721c0.952,0,1.816,0.469,2.387,1.245v-3.765h1.099v9.77H184.412z M184.412,473.37v-3.208
				c-0.395-0.615-1.245-1.143-2.124-1.143c-1.421,0-2.27,1.172-2.27,2.739c0,1.567,0.85,2.724,2.27,2.724
				C183.167,474.483,184.017,473.986,184.412,473.37z"/>
			<path style="fill:#1D262D;" d="M186.932,471.744c0-2.051,1.465-3.706,3.486-3.706c2.139,0,3.398,1.67,3.398,3.794v0.279h-5.727
				c0.088,1.333,1.025,2.446,2.549,2.446c0.805,0,1.626-0.322,2.182-0.894l0.527,0.718c-0.703,0.703-1.655,1.084-2.813,1.084
				C188.44,475.465,186.932,473.956,186.932,471.744z M190.403,468.947c-1.509,0-2.256,1.274-2.314,2.358h4.643
				C192.718,470.25,192.014,468.947,190.403,468.947z"/>
			<path style="fill:#1D262D;" d="M194.607,474.351l0.571-0.791c0.469,0.542,1.362,1.011,2.329,1.011c1.084,0,1.67-0.513,1.67-1.216
				c0-1.714-4.38-0.659-4.38-3.281c0-1.098,0.952-2.036,2.636-2.036c1.201,0,2.051,0.454,2.622,1.026l-0.513,0.762
				c-0.424-0.513-1.201-0.894-2.109-0.894c-0.967,0-1.567,0.483-1.567,1.113c0,1.552,4.38,0.527,4.38,3.281
				c0,1.187-0.952,2.138-2.783,2.138C196.306,475.465,195.325,475.113,194.607,474.351z"/>
			<path style="fill:#1D262D;" d="M201.477,466.471c0-0.41,0.337-0.747,0.732-0.747c0.41,0,0.747,0.337,0.747,0.747
				c0,0.41-0.337,0.732-0.747,0.732C201.814,467.203,201.477,466.881,201.477,466.471z M201.667,475.289v-7.075h1.099v7.075H201.667
				z"/>
			<path style="fill:#1D262D;" d="M204.582,477.105l0.556-0.82c0.586,0.703,1.289,0.967,2.3,0.967c1.172,0,2.27-0.571,2.27-2.124
				v-1.011c-0.513,0.718-1.377,1.26-2.373,1.26c-1.845,0-3.149-1.377-3.149-3.662c0-2.27,1.289-3.677,3.149-3.677
				c0.952,0,1.802,0.469,2.373,1.245v-1.069h1.098v6.87c0,2.344-1.64,3.076-3.369,3.076
				C206.237,478.16,205.417,477.926,204.582,477.105z M209.709,473.253v-3.091c-0.381-0.615-1.23-1.143-2.109-1.143
				c-1.421,0-2.27,1.128-2.27,2.695c0,1.553,0.849,2.695,2.27,2.695C208.478,474.41,209.328,473.868,209.709,473.253z"/>
			<path style="fill:#1D262D;" d="M217.413,475.289v-4.629c0-1.245-0.63-1.641-1.582-1.641c-0.865,0-1.685,0.527-2.095,1.099v5.17
				h-1.099v-7.075h1.099v1.025c0.498-0.586,1.465-1.201,2.519-1.201c1.48,0,2.256,0.747,2.256,2.285v4.966H217.413z"/>
			<path style="fill:#1D262D;" d="M219.932,471.744c0-2.051,1.465-3.706,3.486-3.706c2.139,0,3.398,1.67,3.398,3.794v0.279h-5.727
				c0.088,1.333,1.025,2.446,2.549,2.446c0.806,0,1.626-0.322,2.183-0.894l0.527,0.718c-0.703,0.703-1.655,1.084-2.812,1.084
				C221.441,475.465,219.932,473.956,219.932,471.744z M223.404,468.947c-1.509,0-2.256,1.274-2.314,2.358h4.643
				C225.718,470.25,225.015,468.947,223.404,468.947z"/>
			<path style="fill:#1D262D;" d="M233.35,475.289v-1.055c-0.527,0.718-1.391,1.23-2.388,1.23c-1.846,0-3.149-1.406-3.149-3.706
				c0-2.256,1.289-3.721,3.149-3.721c0.952,0,1.817,0.469,2.388,1.245v-3.765h1.098v9.77H233.35z M233.35,473.37v-3.208
				c-0.396-0.615-1.245-1.143-2.124-1.143c-1.421,0-2.27,1.172-2.27,2.739c0,1.567,0.85,2.724,2.27,2.724
				C232.105,474.483,232.954,473.986,233.35,473.37z"/>
			<path style="fill:#1D262D;" d="M239.692,475.289v-9.77h1.099v3.765c0.572-0.776,1.421-1.245,2.388-1.245
				c1.845,0,3.149,1.465,3.149,3.721c0,2.299-1.304,3.706-3.149,3.706c-0.996,0-1.86-0.513-2.388-1.23v1.055H239.692z
				 M242.9,474.483c1.436,0,2.285-1.157,2.285-2.724c0-1.568-0.85-2.739-2.285-2.739c-0.864,0-1.728,0.527-2.109,1.143v3.208
				C241.171,473.986,242.036,474.483,242.9,474.483z"/>
			<path style="fill:#1D262D;" d="M247.528,477.061c0.161,0.073,0.425,0.117,0.601,0.117c0.483,0,0.806-0.161,1.055-0.747
				l0.469-1.069l-2.959-7.148h1.187l2.358,5.8l2.344-5.8h1.201l-3.545,8.51c-0.425,1.025-1.143,1.421-2.08,1.435
				c-0.234,0-0.601-0.044-0.805-0.103L247.528,477.061z"/>
		</g>
	</g>
</g>
</svg>
